<svg xmlns="http://www.w3.org/2000/svg" viewBox="0 0 512 512">
  <defs>
    <linearGradient id="bg" x1="0" y1="0" x2="0" y2="1">
      <stop offset="0" stop-color="#1b2029"/>
      <stop offset="1" stop-color="#0f4c5c"/>
    </linearGradient>
  </defs>
  <rect width="512" height="512" rx="92" fill="url(#bg)"/>
  <g stroke="#facc15" stroke-width="16" stroke-linecap="round">
    <line x1="256" y1="62" x2="256" y2="102"/>
    <line x1="119" y1="125" x2="147" y2="153"/>
    <line x1="393" y1="125" x2="365" y2="153"/>
    <line x1="62" y1="205" x2="102" y2="205"/>
    <line x1="450" y1="205" x2="410" y2="205"/>
  </g>
  <circle cx="256" cy="205" r="82" fill="#facc15"/>
  <g stroke="#bae6fd" stroke-width="23" stroke-linecap="round" fill="none">
    <path d="M113 338 H374 a26 26 0 1 0 -26 -26"/>
    <path d="M154 389 H414 a26 26 0 1 0 -26 -26"/>
    <path d="M113 440 H312 a26 26 0 1 0 -26 -26"/>
  </g>
</svg>
